<?xml version="1.0" encoding="utf-8"?>
<!-- Generator: Adobe Illustrator 15.1.0, SVG Export Plug-In . SVG Version: 6.00 Build 0)  -->
<!DOCTYPE svg PUBLIC "-//W3C//DTD SVG 1.1//EN" "http://www.w3.org/Graphics/SVG/1.1/DTD/svg11.dtd">
<svg version="1.1" id="Outline_Free_Icons" xmlns="http://www.w3.org/2000/svg" xmlns:xlink="http://www.w3.org/1999/xlink" x="0px"
	 y="0px" width="59.582px" height="91.628px" viewBox="50.209 34.936 59.582 91.628"
	 enable-background="new 50.209 34.936 59.582 91.628" xml:space="preserve">
<path d="M109.791,64.815c0,16.512-29.791,61.75-29.791,61.75s-29.791-45.237-29.791-61.75c0-16.496,13.336-29.879,29.791-29.879
	C96.451,34.936,109.791,48.319,109.791,64.815z"/>
<path fill="#FFFFFF" d="M93.898,52.611c0,0,0.349-0.848-4.131,2.702c-2.152,1.709-4.303,3.424-6.437,5.156
	c-0.714,0.581-1.427,1.165-2.136,1.754c-2.481,2.064-4.902,4.537-8.129,5.354c-0.83,0.209-1.702,0.312-2.558,0.319
	c0,0-1.236,0.076-1.582,0.347c-0.884,0.687-2.236,0.922-3.3,1.171c-0.68,0.157-2.604,0.503-4.077,1.167
	c-1.199,0.539-2.102,1.289-1.795,2.321c0.462,1.55,3.392,2.038,4.688,2.446c2.818,0.885,5.85,1.7,8.827,1.588
	c1.638-0.06,3.481-0.531,4.918-1.338c0.927-0.522,1.28-1.221,1.971-1.951l4.63-4.902c0,0,3.241-3.473,4.321-2.161
	c1.082,1.314,0.957,3.104,1.127,4.697c0.164,1.559,0.188,3.117,0.188,4.683h2.235c0,0,0.231-5.48,0.965-6.87
	c0,0,1.269-3.394,2.337-4.794c0.02-0.022,0.038-0.047,0.057-0.07c0.563-1.05,0.621-2.663,0.621-4.361c0,0-0.041-2.432-0.966-4.438
	C95.674,55.429,95.25,53.875,93.898,52.611z"/>
</svg>
